<mxfile host="Electron" modified="2024-06-09T12:16:37.670Z" agent="Mozilla/5.0 (Windows NT 10.0; Win64; x64) AppleWebKit/537.36 (KHTML, like Gecko) draw.io/24.5.1 Chrome/124.0.6367.207 Electron/30.0.6 Safari/537.36" etag="XlKco4SqPhdaARZfBqzF" version="24.5.1" type="device">
  <diagram name="Page-1" id="2YBvvXClWsGukQMizWep">
    <mxGraphModel dx="964" dy="511" grid="1" gridSize="10" guides="1" tooltips="1" connect="1" arrows="1" fold="1" page="1" pageScale="1" pageWidth="850" pageHeight="1100" math="0" shadow="0">
      <root>
        <mxCell id="0" />
        <mxCell id="1" parent="0" />
        <mxCell id="lfxyEf9O49bJsrjYGhTW-1" value="&lt;font style=&quot;font-size: 11px;&quot;&gt;LoginForm&amp;nbsp;&lt;/font&gt;&lt;span style=&quot;font-size: 11px; background-color: initial;&quot;&gt;&amp;lt;&amp;lt;Boundary&amp;gt;&amp;gt;&lt;/span&gt;" style="swimlane;fontStyle=1;align=center;verticalAlign=top;childLayout=stackLayout;horizontal=1;startSize=26;horizontalStack=0;resizeParent=1;resizeParentMax=0;resizeLast=0;collapsible=1;marginBottom=0;whiteSpace=wrap;html=1;" vertex="1" parent="1">
          <mxGeometry x="140" y="100" width="200" height="60" as="geometry" />
        </mxCell>
        <mxCell id="lfxyEf9O49bJsrjYGhTW-2" value="" style="line;strokeWidth=1;fillColor=none;align=left;verticalAlign=middle;spacingTop=-1;spacingLeft=3;spacingRight=3;rotatable=0;labelPosition=right;points=[];portConstraint=eastwest;strokeColor=inherit;" vertex="1" parent="lfxyEf9O49bJsrjYGhTW-1">
          <mxGeometry y="26" width="200" height="8" as="geometry" />
        </mxCell>
        <mxCell id="lfxyEf9O49bJsrjYGhTW-3" value="+ notifyError()" style="text;strokeColor=none;fillColor=none;align=left;verticalAlign=top;spacingLeft=4;spacingRight=4;overflow=hidden;rotatable=0;points=[[0,0.5],[1,0.5]];portConstraint=eastwest;whiteSpace=wrap;html=1;" vertex="1" parent="lfxyEf9O49bJsrjYGhTW-1">
          <mxGeometry y="34" width="200" height="26" as="geometry" />
        </mxCell>
        <mxCell id="lfxyEf9O49bJsrjYGhTW-4" value="&lt;font style=&quot;font-size: 11px;&quot;&gt;LoginController&amp;nbsp;&lt;/font&gt;&lt;span style=&quot;font-size: 11px; background-color: initial;&quot;&gt;&amp;lt;&amp;lt;Controller&amp;gt;&amp;gt;&lt;/span&gt;" style="swimlane;fontStyle=1;align=center;verticalAlign=top;childLayout=stackLayout;horizontal=1;startSize=26;horizontalStack=0;resizeParent=1;resizeParentMax=0;resizeLast=0;collapsible=1;marginBottom=0;whiteSpace=wrap;html=1;" vertex="1" parent="1">
          <mxGeometry x="330" y="230" width="220" height="90" as="geometry" />
        </mxCell>
        <mxCell id="lfxyEf9O49bJsrjYGhTW-5" value="- user: User()" style="text;strokeColor=none;fillColor=none;align=left;verticalAlign=top;spacingLeft=4;spacingRight=4;overflow=hidden;rotatable=0;points=[[0,0.5],[1,0.5]];portConstraint=eastwest;whiteSpace=wrap;html=1;" vertex="1" parent="lfxyEf9O49bJsrjYGhTW-4">
          <mxGeometry y="26" width="220" height="24" as="geometry" />
        </mxCell>
        <mxCell id="lfxyEf9O49bJsrjYGhTW-6" value="" style="line;strokeWidth=1;fillColor=none;align=left;verticalAlign=middle;spacingTop=-1;spacingLeft=3;spacingRight=3;rotatable=0;labelPosition=right;points=[];portConstraint=eastwest;strokeColor=inherit;" vertex="1" parent="lfxyEf9O49bJsrjYGhTW-4">
          <mxGeometry y="50" width="220" height="8" as="geometry" />
        </mxCell>
        <mxCell id="lfxyEf9O49bJsrjYGhTW-7" value="+ login(user)" style="text;strokeColor=none;fillColor=none;align=left;verticalAlign=top;spacingLeft=4;spacingRight=4;overflow=hidden;rotatable=0;points=[[0,0.5],[1,0.5]];portConstraint=eastwest;whiteSpace=wrap;html=1;" vertex="1" parent="lfxyEf9O49bJsrjYGhTW-4">
          <mxGeometry y="58" width="220" height="32" as="geometry" />
        </mxCell>
        <mxCell id="lfxyEf9O49bJsrjYGhTW-8" value="&lt;font style=&quot;font-size: 11px;&quot;&gt;User&amp;nbsp;&lt;/font&gt;&lt;span style=&quot;font-size: 11px; background-color: initial;&quot;&gt;&amp;lt;&amp;lt;Entity&amp;gt;&amp;gt;&lt;/span&gt;" style="swimlane;fontStyle=1;align=center;verticalAlign=top;childLayout=stackLayout;horizontal=1;startSize=26;horizontalStack=0;resizeParent=1;resizeParentMax=0;resizeLast=0;collapsible=1;marginBottom=0;whiteSpace=wrap;html=1;" vertex="1" parent="1">
          <mxGeometry x="510" y="80" width="240" height="100" as="geometry" />
        </mxCell>
        <mxCell id="lfxyEf9O49bJsrjYGhTW-9" value="- user: User()" style="text;strokeColor=none;fillColor=none;align=left;verticalAlign=top;spacingLeft=4;spacingRight=4;overflow=hidden;rotatable=0;points=[[0,0.5],[1,0.5]];portConstraint=eastwest;whiteSpace=wrap;html=1;" vertex="1" parent="lfxyEf9O49bJsrjYGhTW-8">
          <mxGeometry y="26" width="240" height="34" as="geometry" />
        </mxCell>
        <mxCell id="lfxyEf9O49bJsrjYGhTW-10" value="" style="line;strokeWidth=1;fillColor=none;align=left;verticalAlign=middle;spacingTop=-1;spacingLeft=3;spacingRight=3;rotatable=0;labelPosition=right;points=[];portConstraint=eastwest;strokeColor=inherit;" vertex="1" parent="lfxyEf9O49bJsrjYGhTW-8">
          <mxGeometry y="60" width="240" height="8" as="geometry" />
        </mxCell>
        <mxCell id="lfxyEf9O49bJsrjYGhTW-11" value="+isAdmin(user)" style="text;strokeColor=none;fillColor=none;align=left;verticalAlign=top;spacingLeft=4;spacingRight=4;overflow=hidden;rotatable=0;points=[[0,0.5],[1,0.5]];portConstraint=eastwest;whiteSpace=wrap;html=1;" vertex="1" parent="lfxyEf9O49bJsrjYGhTW-8">
          <mxGeometry y="68" width="240" height="32" as="geometry" />
        </mxCell>
        <mxCell id="lfxyEf9O49bJsrjYGhTW-12" value="" style="endArrow=none;html=1;rounded=0;exitX=0.5;exitY=0;exitDx=0;exitDy=0;" edge="1" parent="1" source="lfxyEf9O49bJsrjYGhTW-4" target="lfxyEf9O49bJsrjYGhTW-1">
          <mxGeometry width="50" height="50" relative="1" as="geometry">
            <mxPoint x="380" y="180" as="sourcePoint" />
            <mxPoint x="430" y="130" as="targetPoint" />
          </mxGeometry>
        </mxCell>
        <mxCell id="lfxyEf9O49bJsrjYGhTW-13" value="" style="endArrow=none;html=1;rounded=0;entryX=-0.001;entryY=0.281;entryDx=0;entryDy=0;entryPerimeter=0;" edge="1" parent="1" source="lfxyEf9O49bJsrjYGhTW-4" target="lfxyEf9O49bJsrjYGhTW-9">
          <mxGeometry width="50" height="50" relative="1" as="geometry">
            <mxPoint x="380" y="210" as="sourcePoint" />
            <mxPoint x="306" y="170" as="targetPoint" />
          </mxGeometry>
        </mxCell>
        <mxCell id="lfxyEf9O49bJsrjYGhTW-14" value="&lt;span style=&quot;font-size: 11px;&quot;&gt;UserService&lt;/span&gt;" style="swimlane;fontStyle=1;align=center;verticalAlign=top;childLayout=stackLayout;horizontal=1;startSize=26;horizontalStack=0;resizeParent=1;resizeParentMax=0;resizeLast=0;collapsible=1;marginBottom=0;whiteSpace=wrap;html=1;" vertex="1" parent="1">
          <mxGeometry x="60" y="230" width="230" height="110" as="geometry" />
        </mxCell>
        <mxCell id="lfxyEf9O49bJsrjYGhTW-15" value="&lt;span style=&quot;background-color: initial;&quot;&gt;-email: String&lt;/span&gt;&lt;div&gt;-password: String&lt;br&gt;&lt;/div&gt;" style="text;strokeColor=none;fillColor=none;align=left;verticalAlign=top;spacingLeft=4;spacingRight=4;overflow=hidden;rotatable=0;points=[[0,0.5],[1,0.5]];portConstraint=eastwest;whiteSpace=wrap;html=1;" vertex="1" parent="lfxyEf9O49bJsrjYGhTW-14">
          <mxGeometry y="26" width="230" height="44" as="geometry" />
        </mxCell>
        <mxCell id="lfxyEf9O49bJsrjYGhTW-16" value="" style="line;strokeWidth=1;fillColor=none;align=left;verticalAlign=middle;spacingTop=-1;spacingLeft=3;spacingRight=3;rotatable=0;labelPosition=right;points=[];portConstraint=eastwest;strokeColor=inherit;" vertex="1" parent="lfxyEf9O49bJsrjYGhTW-14">
          <mxGeometry y="70" width="230" height="8" as="geometry" />
        </mxCell>
        <mxCell id="lfxyEf9O49bJsrjYGhTW-17" value="+login(email, password)" style="text;strokeColor=none;fillColor=none;align=left;verticalAlign=top;spacingLeft=4;spacingRight=4;overflow=hidden;rotatable=0;points=[[0,0.5],[1,0.5]];portConstraint=eastwest;whiteSpace=wrap;html=1;" vertex="1" parent="lfxyEf9O49bJsrjYGhTW-14">
          <mxGeometry y="78" width="230" height="32" as="geometry" />
        </mxCell>
        <mxCell id="lfxyEf9O49bJsrjYGhTW-18" value="" style="endArrow=none;html=1;rounded=0;exitX=0;exitY=0.5;exitDx=0;exitDy=0;" edge="1" parent="1" source="lfxyEf9O49bJsrjYGhTW-5" target="lfxyEf9O49bJsrjYGhTW-15">
          <mxGeometry width="50" height="50" relative="1" as="geometry">
            <mxPoint x="450" y="240" as="sourcePoint" />
            <mxPoint x="310" y="170" as="targetPoint" />
          </mxGeometry>
        </mxCell>
      </root>
    </mxGraphModel>
  </diagram>
</mxfile>
